HIERARCHY
ROOT hip
{
	OFFSET 0.000000 0.000000 0.000000 
	CHANNELS 6 Xposition Yposition Zposition Xrotation Zrotation Yrotation
	JOINT abdomen
	{
		OFFSET 0.000000 3.402643 0.000000 
		CHANNELS 3 Xrotation Zrotation Yrotation
		JOINT chest
		{
			OFFSET 0.000000 8.438565 -0.680529 
			CHANNELS 3 Xrotation Zrotation Yrotation
			JOINT neck
			{
				OFFSET 0.000000 10.207942 -0.272212 
				CHANNELS 3 Xrotation Zrotation Yrotation
				JOINT head
				{
					OFFSET 0.000000 3.130431 0.000000 
					CHANNELS 3 Xrotation Zrotation Yrotation
					End Site
					{
						OFFSET 0.000000 3.130435 0.000000 
					}
				}
			}
			JOINT lCollar
			{
				OFFSET 3.470700 6.669187 -0.816635 
				CHANNELS 3 Yrotation Zrotation Xrotation
				JOINT lShldr
				{
					OFFSET 3.198488 0.000000 0.000000 
					CHANNELS 3 Zrotation Yrotation Xrotation
					JOINT lForeArm
					{
						OFFSET 10.139888 0.000000 0.000000 
						CHANNELS 3 Yrotation Zrotation Xrotation
						JOINT lHand
						{
							OFFSET 8.370511 0.000000 0.000000 
							CHANNELS 3 Zrotation Yrotation Xrotation
							End Site
							{
								OFFSET 4.083176 0.000000 0.000000 
							}
						}
					}
				}
			}
			JOINT rCollar
			{
				OFFSET -3.470700 6.669187 -0.816635 
				CHANNELS 3 Yrotation Zrotation Xrotation
				JOINT rShldr
				{
					OFFSET -3.198488 0.000000 0.000000 
					CHANNELS 3 Zrotation Yrotation Xrotation
					JOINT rForeArm
					{
						OFFSET -10.139888 0.000000 0.000000 
						CHANNELS 3 Yrotation Zrotation Xrotation
						JOINT rHand
						{
							OFFSET -8.370511 0.000000 0.000000 
							CHANNELS 3 Zrotation Yrotation Xrotation
							End Site
							{
								OFFSET -4.083176 0.000000 0.000000 
							}
						}
					}
				}
			}
		}
	}
	JOINT lThigh
	{
		OFFSET 5.308129 -1.633274 1.361059 
		CHANNELS 3 Xrotation Zrotation Yrotation
		JOINT lShin
		{
			OFFSET -2.041588 -20.007561 0.000000 
			CHANNELS 3 Xrotation Zrotation Yrotation
			JOINT lFoot
			{
				OFFSET 0.000000 -19.190928 -1.224953 
				CHANNELS 3 Xrotation Yrotation Zrotation
				End Site
				{
					OFFSET 0.000000 -2.449906 4.627600 
				}
			}
		}
	}
	JOINT rThigh
	{
		OFFSET -5.308129 -1.633274 1.361059 
		CHANNELS 3 Xrotation Zrotation Yrotation
		JOINT rShin
		{
			OFFSET 2.041588 -20.007561 0.000000 
			CHANNELS 3 Xrotation Zrotation Yrotation
			JOINT rFoot
			{
				OFFSET 0.000000 -19.190928 -1.224953 
				CHANNELS 3 Xrotation Yrotation Zrotation
				End Site
				{
					OFFSET 0.000000 -2.449906 4.627600 
				}
			}
		}
	}
}
MOTION
Frames: 15
Frame Time: 0.033333
0.904023 49.358273 10.743794 -0.214847 -0.322263 -1.180432 0.000000 0.000000 0.000000 1.093832 -0.702997 -0.706900 2.415006 1.680415 -1.294944 23.418221 -0.330435 0.488722 -2.618962 -10.190645 1.508063 -65.923531 -34.840279 33.444542 -107.697197 8.538945 1.743067 19.984165 27.550720 0.521974 2.610329 22.264549 1.116432 40.136475 37.533955 28.133736 107.179550 -11.522661 -24.418371 -3.669751 -21.604338 -3.175402 4.110901 2.744372 1.323457 -1.200822 -4.185495 0.506209 -1.896396 -0.021582 1.200105 2.712538 -3.435645 -3.566860 0.144831 4.376937 8.257551 -0.991458 0.005295 -1.286841 
0.910064 49.362682 10.788911 -0.371106 -0.468740 -1.393448 0.000000 0.000000 0.000000 1.132880 -0.624878 -0.656994 2.592220 1.806073 -1.247221 23.720867 -0.263975 0.416926 -2.511550 -10.268352 1.555165 -66.131859 -34.705799 33.696362 -107.815117 8.686654 2.825117 20.334248 26.833097 0.475989 2.671734 21.672070 1.166926 40.776775 37.397640 27.822382 107.305969 -11.469421 -22.851788 -2.259586 -22.590775 -3.411865 4.270905 2.896582 1.508846 -1.045654 -4.217357 0.496127 -1.763416 -0.020949 1.115809 3.070081 -3.342876 -3.593475 -0.264322 4.485458 8.527020 -0.659972 0.014518 -1.093472 
0.907796 49.360538 10.833345 -0.410165 -0.371084 -1.257109 0.000000 0.000000 0.000000 1.035255 -0.790887 -0.854268 2.755367 2.007946 -1.188110 24.121288 -0.282289 0.771183 -2.626576 -10.322790 1.459576 -66.249840 -34.451225 34.132202 -108.097198 8.755945 3.045274 21.973553 26.423298 0.748518 2.492858 21.459105 1.077824 41.104862 37.458549 26.477005 108.294205 -11.355845 -21.669628 1.406306 -28.374640 -4.188474 4.383273 2.782591 1.412994 -1.123137 -4.185375 0.559664 -1.829911 -0.017490 1.148942 3.003778 -3.442224 -3.674064 0.146937 4.479465 8.490595 -0.843569 0.010648 -1.158458 
0.898107 49.360161 10.850510 -0.449227 -0.341786 -1.403570 0.000000 0.000000 0.000000 1.005950 -0.771365 -0.814456 2.769801 1.802240 -1.154113 24.111343 0.075281 0.645901 -2.541131 -10.475801 1.433152 -66.159569 -34.298321 33.941299 -108.664116 8.786810 3.028701 20.323771 26.744047 0.461452 2.501662 21.447407 1.052730 41.036564 37.278412 26.219263 108.511360 -11.231584 -21.975830 1.877220 -28.111605 -4.289318 4.623189 2.751366 1.359245 -1.463559 -4.143815 0.456270 -1.921757 -0.013200 1.235078 2.914198 -3.460241 -3.639979 0.447221 4.407245 8.513900 -1.043939 0.010698 -1.305919 
0.899869 49.359409 10.865952 -0.507820 -0.302722 -1.481692 0.000000 0.000000 0.000000 0.996189 -0.790896 -0.775604 2.751541 1.788891 -1.270297 24.101688 -0.225853 0.601398 -2.565098 -10.134979 1.435772 -66.459229 -34.147209 34.031399 -108.795845 8.754200 3.046805 19.748899 26.620623 0.313101 2.500098 21.574043 1.055784 41.365791 37.143856 26.282444 108.548676 -11.186414 -21.821941 1.637476 -27.068813 -4.222930 4.880432 2.704337 1.371461 -1.836445 -4.168395 0.641590 -1.929816 -0.020216 1.274361 3.132107 -3.503822 -3.704106 0.125530 4.445794 8.654931 -1.032290 0.008152 -1.369742 
0.903140 49.346947 10.854550 -0.302740 -0.341792 -1.580225 0.000000 0.000000 0.000000 0.800852 -0.761644 -0.733431 2.675051 1.819545 -1.214887 23.994274 -0.235385 0.579697 -2.427508 -11.705438 1.241143 -64.676544 -34.520840 33.944206 -108.856956 8.812263 3.339923 19.835676 26.421543 0.300102 2.689466 21.704407 0.832594 41.502525 36.795799 28.921848 107.710892 -11.688868 -21.678381 -3.112354 -20.217581 -3.274003 4.285768 2.714638 1.341752 -1.015069 -4.104703 0.841657 -2.110512 -0.020896 1.264304 2.947569 -3.484654 -3.620945 0.028550 4.467923 8.813078 -0.945604 0.014205 -1.325093 
0.893451 49.348331 10.844432 -0.244146 -0.371090 -1.541388 0.000000 0.000000 0.000000 0.742250 -0.742125 -0.732396 2.616712 1.824775 -1.243119 24.053062 -0.367098 0.543015 -2.574551 -10.143725 1.196492 -66.454926 -34.078537 34.032181 -108.626541 8.875828 3.904910 19.944653 26.684940 0.360844 2.674988 21.457443 0.799788 42.011868 36.629658 29.112724 107.516777 -11.656448 -21.738400 -3.293089 -19.837643 -3.262421 4.056266 2.789433 1.389879 -0.712786 -4.143073 0.693280 -1.907726 -0.008653 1.152747 2.787730 -3.430980 -3.593136 0.185094 4.469806 8.717463 -0.918307 0.002589 -1.266629 
0.884516 49.364323 10.845627 -0.283208 -0.351558 -1.560762 0.000000 0.000000 0.000000 0.712938 -0.664011 -0.711500 2.554804 1.495886 -1.580940 23.740522 -0.348792 0.110668 -2.645161 -10.496583 1.168375 -65.493477 -34.282265 33.543674 -108.218414 8.603942 1.193421 17.237988 29.092709 0.146539 2.819218 21.605616 0.750654 41.893898 36.473629 28.417049 107.486984 -11.416355 -22.796038 -2.329912 -19.521769 -3.410466 4.235453 2.772386 1.369733 -1.015629 -4.136100 0.794385 -1.916826 -0.012326 1.172342 2.712441 -3.435506 -3.576703 0.457553 4.428578 8.709484 -0.958003 0.010170 -1.242893 
0.884012 49.348835 10.837523 -0.341803 -0.341791 -1.560461 0.000000 0.000000 0.000000 0.761771 -0.673769 -0.692666 2.525531 1.546197 -1.542820 23.818953 -0.499436 0.176584 -2.671591 -9.913286 1.209407 -66.000977 -34.142597 33.800304 -108.249542 8.677693 3.233748 19.992945 26.090744 0.279710 2.824850 21.764305 0.790677 41.621346 36.590824 28.400890 107.503624 -11.441044 -22.674217 -2.827504 -19.523993 -3.333533 4.323204 2.782433 1.366622 -1.054678 -4.133643 0.523167 -1.945294 -0.013425 1.193034 2.857716 -3.452751 -3.631586 0.253473 4.459582 8.634962 -1.045894 0.006798 -1.349369 
0.876589 49.355633 10.812167 -0.449227 -0.351552 -1.510916 0.000000 0.000000 0.000000 0.908271 -0.703037 -0.704624 2.484776 1.610427 -1.509343 23.877275 -0.367407 0.153516 -2.566945 -10.288536 1.351120 -65.784851 -34.548183 34.343735 -107.788811 8.822389 3.910362 22.384176 24.887362 0.540392 2.769504 21.761227 0.935192 41.498806 36.752182 28.329050 107.392540 -11.449039 -22.834494 -2.700827 -19.555079 -3.356050 4.514465 2.799136 1.467901 -1.289411 -4.206439 0.631244 -2.012630 -0.021356 1.242698 3.110274 -3.422767 -3.628684 -0.068512 4.460912 8.620421 -1.009437 0.009166 -1.379725 
0.889550 49.344685 10.809082 -0.449231 -0.419909 -1.539677 0.000000 0.000000 0.000000 0.937554 -0.615152 -0.674233 2.378535 1.679394 -1.461825 23.897173 -0.536929 0.185125 -2.494813 -10.112082 1.374423 -66.059929 -34.591324 34.401581 -107.611031 8.810186 4.065351 22.458916 24.912914 0.553546 2.813449 21.861061 0.951231 41.084621 37.017544 27.847609 107.236366 -11.437499 -22.497747 -1.342127 -20.771278 -3.550455 4.355134 2.861427 1.491243 -0.945689 -4.179576 0.545678 -1.994184 -0.005301 1.185952 3.054561 -3.367885 -3.566643 -0.010123 4.449451 8.722678 -0.757627 0.012984 -1.157232 
0.886278 49.363564 10.814910 -0.322273 -0.390619 -1.404053 0.000000 0.000000 0.000000 0.830126 -0.615170 -0.624252 2.340602 1.724336 -1.505513 23.721643 -0.631654 0.141759 -2.572173 -10.022003 1.270939 -66.156044 -34.525505 34.191505 -107.594635 8.720417 2.419866 19.300091 27.565922 0.382322 2.850867 21.914040 0.851368 40.823898 36.936893 27.419268 107.390511 -11.396618 -22.125835 -0.761702 -21.547607 -3.646340 4.135526 2.848505 1.451100 -0.771978 -4.176529 0.513688 -1.862850 -0.019710 1.116653 2.965051 -3.375068 -3.571020 -0.029776 4.448548 8.613852 -0.773207 0.001500 -1.161732 
0.874199 49.362930 10.812002 -0.332036 -0.312495 -1.336080 0.000000 0.000000 0.000000 0.839894 -0.624933 -0.634267 2.438903 1.606404 -1.400731 23.613960 -0.537648 0.217078 -2.590224 -10.022781 1.278789 -65.938957 -34.433418 33.826336 -107.415382 8.637978 2.180451 16.896933 27.792294 -0.123708 2.848455 21.982767 0.852486 40.634583 36.930309 27.425213 107.184219 -11.384421 -22.270964 -0.790470 -20.874079 -3.647032 4.637996 2.764075 1.349782 -1.854881 -4.176306 0.486386 -1.803334 -0.012603 1.213830 3.052760 -3.442832 -3.613074 -0.196658 4.424937 8.504255 -1.044193 0.007076 -1.422617 
0.870171 49.363316 10.790181 -0.263675 -0.273435 -1.121789 0.000000 0.000000 0.000000 0.791061 -0.615176 -0.741020 2.494896 1.583333 -1.534034 23.546284 -0.764270 0.235381 -2.645160 -10.001355 1.237292 -65.844452 -34.587856 34.088539 -107.352585 8.538129 1.118293 18.420961 27.615326 0.191047 2.834069 22.323332 0.794707 40.212097 36.949539 28.082268 107.027184 -11.488025 -23.555218 -2.856793 -19.114767 -3.333570 4.582407 2.740519 1.310873 -2.011277 -4.166142 0.253584 -1.811525 -0.016567 1.243810 2.829349 -3.483995 -3.665006 0.116614 4.439050 8.273677 -0.977033 0.012526 -1.263010 
0.864380 49.374130 10.781284 -0.185550 -0.312498 -1.151332 0.000000 0.000000 0.000000 0.742218 -0.517535 -0.563433 2.482835 1.527783 -1.367391 23.477306 -0.566306 0.152243 -2.654747 -10.021043 1.178060 -65.893074 -34.580494 34.097576 -107.379494 8.550492 1.074398 18.152107 27.810215 0.151303 2.984777 22.087402 0.757898 40.230633 36.851402 27.942066 107.075035 -11.426778 -23.749109 -3.282477 -19.455219 -3.270028 4.669039 2.769197 1.339375 -2.381950 -4.166327 0.642497 -1.632639 -0.012979 1.213009 2.712635 -3.435782 -3.557019 0.184045 4.407561 8.542949 -0.717456 0.007355 -1.065033 
